HIERARCHY
ROOT Hips
{
	OFFSET 0.000000 0.000000 0.000000
	CHANNELS 6 Xposition Yposition Zposition Zrotation Yrotation Xrotation 
	JOINT LHipJoint
	{
		OFFSET 0.000000 0.000000 0.000000
		CHANNELS 3 Zrotation Yrotation Xrotation
		JOINT LeftUpLeg
		{
			OFFSET 1.363060 -1.794630 0.839290
			CHANNELS 3 Zrotation Yrotation Xrotation
			JOINT LeftLeg
			{
				OFFSET 2.448110 -6.726130 0.000000
				CHANNELS 3 Zrotation Yrotation Xrotation
				JOINT LeftFoot
				{
					OFFSET 2.562200 -7.039590 0.000000
					CHANNELS 3 Zrotation Yrotation Xrotation
					JOINT LeftToeBase
					{
						OFFSET 0.157640 -0.433110 2.322550
						CHANNELS 3 Zrotation Yrotation Xrotation
						End Site
						{
							OFFSET 0.000000 0.000000 0.000000
						}
					}
				}
			}
		}
	}
	JOINT RHipJoint
	{
		OFFSET 0.000000 0.000000 0.000000
		CHANNELS 3 Zrotation Yrotation Xrotation
		JOINT RightUpLeg
		{
			OFFSET -1.305520 -1.794630 0.839290
			CHANNELS 3 Zrotation Yrotation Xrotation
			JOINT RightLeg
			{
				OFFSET -2.542530 -6.985550 0.000000
				CHANNELS 3 Zrotation Yrotation Xrotation
				JOINT RightFoot
				{
					OFFSET -2.568260 -7.056230 0.000000
					CHANNELS 3 Zrotation Yrotation Xrotation
					JOINT RightToeBase
					{
						OFFSET -0.164730 -0.452590 2.363150
						CHANNELS 3 Zrotation Yrotation Xrotation
						End Site
						{
							OFFSET 0.000000 0.000000 0.000000
						}
					}
				}
			}
		}
	}
	JOINT LowerBack
	{
		OFFSET 0.000000 0.000000 0.000000
		CHANNELS 3 Zrotation Yrotation Xrotation
		JOINT Spine
		{
			OFFSET 0.028270 2.035590 -0.193380
			CHANNELS 3 Zrotation Yrotation Xrotation
			JOINT Spine1
			{
				OFFSET 0.056720 2.048850 -0.042750
				CHANNELS 3 Zrotation Yrotation Xrotation
				JOINT Neck
				{
					OFFSET 0.000000 0.000000 0.000000
					CHANNELS 3 Zrotation Yrotation Xrotation
					JOINT Neck1
					{
						OFFSET -0.054170 1.746240 0.172020
						CHANNELS 3 Zrotation Yrotation Xrotation
						JOINT Head
						{
							OFFSET 0.104070 1.761360 -0.123970
							CHANNELS 3 Zrotation Yrotation Xrotation
							End Site
							{
								OFFSET 0.000000 0.000000 0.000000
							}
						}
					}
				}
				JOINT LeftShoulder
				{
					OFFSET 0.000000 0.000000 0.000000
					CHANNELS 3 Zrotation Yrotation Xrotation
					JOINT LeftArm
					{
						OFFSET 3.362410 1.200890 -0.311210
						CHANNELS 3 Zrotation Yrotation Xrotation
						JOINT LeftForeArm
						{
							OFFSET 4.983000 -0.000000 -0.000000
							CHANNELS 3 Zrotation Yrotation Xrotation
							JOINT LeftHand
							{
								OFFSET 3.483560 -0.000000 -0.000000
								CHANNELS 3 Zrotation Yrotation Xrotation
								JOINT LeftFingerBase
								{
									OFFSET 0.000000 0.000000 0.000000
									CHANNELS 3 Zrotation Yrotation Xrotation
									JOINT LeftHandIndex1
									{
										OFFSET 0.715260 -0.000000 -0.000000
										CHANNELS 3 Zrotation Yrotation Xrotation
										End Site
										{
											OFFSET 0.000000 0.000000 0.000000
										}
									}
								}
								JOINT LThumb
								{
									OFFSET 0.000000 0.000000 0.000000
									CHANNELS 3 Zrotation Yrotation Xrotation
									End Site
									{
										OFFSET 0.000000 0.000000 0.000000
									}
								}
							}
						}
					}
				}
				JOINT RightShoulder
				{
					OFFSET 0.000000 0.000000 0.000000
					CHANNELS 3 Zrotation Yrotation Xrotation
					JOINT RightArm
					{
						OFFSET -3.136600 1.374050 -0.404650
						CHANNELS 3 Zrotation Yrotation Xrotation
						JOINT RightForeArm
						{
							OFFSET -5.241900 -0.000000 -0.000000
							CHANNELS 3 Zrotation Yrotation Xrotation
							JOINT RightHand
							{
								OFFSET -3.444170 -0.000000 -0.000000
								CHANNELS 3 Zrotation Yrotation Xrotation
								JOINT RightFingerBase
								{
									OFFSET 0.000000 0.000000 0.000000
									CHANNELS 3 Zrotation Yrotation Xrotation
									JOINT RightHandIndex1
									{
										OFFSET -0.622530 -0.000000 -0.000000
										CHANNELS 3 Zrotation Yrotation Xrotation
										End Site
										{
											OFFSET 0.000000 0.000000 0.000000
										}
									}
								}
								JOINT RThumb
								{
									OFFSET 0.000000 0.000000 0.000000
									CHANNELS 3 Zrotation Yrotation Xrotation
									End Site
									{
										OFFSET 0.000000 0.000000 0.000000
									}
								}
							}
						}
					}
				}
			}
		}
	}
}
MOTION
Frames: 9
Frame Time: 0.008333
-14.901026 17.171847 24.455754 -6.583300 -46.865084 5.702924 13.052886 3.378411 -4.864906 -7.202569 -1.675841 0.977920 -4.667841 -0.879530 3.526754 -0.106143 6.754531 24.104954 0.000000 0.000000 0.000000 -13.209189 -0.486860 -3.477302 22.022554 25.330856 -9.898382 4.471843 -10.059767 18.735943 7.310019 -24.185393 -5.226261 -0.171900 2.671000 -7.364100 0.012103 1.131001 -14.648603 1.041763 0.810880 -5.295211 -2.946988 0.260017 5.398964 -0.926547 -0.454121 -22.575467 9.041731 -0.361564 13.688049 0.907500 1.026300 14.686100 -4.438899 -7.604299 -3.263479 -76.556195 6.015319 45.233554 14.644981 -19.374586 -3.791264 -1.818748 -2.088112 -40.386250 24.371177 -4.626435 -2.093100 -7.125000 0.000000 0.000000 0.360700 25.383900 -0.171300 5.872609 10.309871 0.639062 33.863741 12.500559 -40.061315 -126.081035 50.274698 -97.458306 -0.677422 3.689489 42.168084 -78.070475 32.902853 -62.151700 7.125000 0.000000 0.000000 -23.988700 32.165800 -34.830400 
-14.901404 17.171998 24.455344 -6.586869 -46.860482 5.700485 13.053083 3.378577 -4.866135 -7.203094 -1.675666 0.977218 -4.667863 -0.879153 3.526538 -0.106063 6.754917 24.104805 0.000000 0.000000 0.000000 -13.209380 -0.488232 -3.479216 22.030783 25.323089 -9.889969 4.472097 -10.057660 18.735619 7.307671 -24.178398 -5.228013 -0.170800 2.662000 -7.339200 0.031998 1.135594 -14.647163 1.033215 0.822540 -5.288179 -2.982843 0.263741 5.429339 -0.898398 -0.450914 -22.586549 9.051342 -0.370305 13.663249 0.909200 1.026300 14.668700 -4.435385 -7.601478 -3.258503 -76.494497 6.007411 45.245065 14.705458 -19.454620 -3.821951 -1.807967 -2.100829 -40.613027 24.366289 -4.625762 -2.089300 -7.125000 0.000000 0.000000 0.358600 25.391700 -0.170200 5.870392 10.299853 0.639945 33.993182 12.494633 -40.147639 -126.120558 50.261475 -97.478417 -0.648628 3.689224 42.921697 -78.486347 32.817982 -62.782800 7.125000 0.000000 0.000000 -24.279300 32.578100 -35.328600 
-14.901694 17.172119 24.454872 -6.592701 -46.855045 5.703023 13.053668 3.379237 -4.866836 -7.203549 -1.675508 0.976610 -4.667882 -0.878821 3.526349 -0.106012 6.755257 24.104676 0.000000 0.000000 0.000000 -13.209198 -0.488565 -3.480960 22.038119 25.317415 -9.884138 4.472907 -10.055240 18.733353 7.305041 -24.170673 -5.232025 -0.169100 2.648800 -7.302500 0.055319 1.141756 -14.646561 1.022642 0.837567 -5.282086 -3.033615 0.268045 5.457983 -0.863181 -0.455847 -22.603059 9.066293 -0.393405 13.645217 0.911600 1.022300 14.658500 -4.439613 -7.602842 -3.254497 -76.449817 5.972925 45.122697 14.727015 -19.478535 -3.831499 -1.803067 -2.104464 -40.718078 24.350456 -4.634387 -2.091700 -7.125000 0.000000 0.000000 0.345900 25.383800 -0.164200 5.868188 10.295088 0.643222 34.134219 12.522052 -40.119413 -126.190141 50.223093 -97.528456 -0.690902 3.681674 42.461887 -78.166852 32.399143 -61.927000 7.125000 0.000000 0.000000 -24.234100 31.768400 -35.195100 
-14.902072 17.172271 24.454462 -6.598099 -46.849257 5.708579 13.054350 3.379727 -4.867616 -7.203924 -1.675377 0.976108 -4.667897 -0.878545 3.526192 -0.105978 6.755540 24.104569 0.000000 0.000000 0.000000 -13.209726 -0.487637 -3.481877 22.043870 25.324100 -9.878674 4.473923 -10.053290 18.729308 7.305397 -24.171884 -5.244594 -0.166900 2.631900 -7.255700 0.074480 1.148608 -14.646341 1.010242 0.855675 -5.276716 -3.088037 0.273507 5.485351 -0.822789 -0.468550 -22.627289 9.085357 -0.429588 13.633318 0.914400 1.014400 14.655800 -4.445395 -7.605163 -3.251072 -76.389607 5.937069 45.023374 14.744590 -19.497924 -3.839089 -1.798799 -2.109903 -40.837670 24.342644 -4.631765 -2.089100 -7.125000 0.000000 0.000000 0.341200 25.388400 -0.161900 5.865045 10.294058 0.647613 34.278131 12.587992 -39.978435 -126.291416 50.160053 -97.606336 -0.806163 3.663120 40.788497 -77.242276 31.681605 -59.802800 7.125000 0.000000 0.000000 -23.919400 29.902300 -34.519400 
-14.902549 17.172535 24.453854 -6.605435 -46.843818 5.718365 13.055546 3.380266 -4.868322 -7.204155 -1.675291 0.975800 -4.667906 -0.878369 3.526092 -0.105977 6.755720 24.104502 0.000000 0.000000 0.000000 -13.210427 -0.485543 -3.481984 22.050084 25.340042 -9.873958 4.475192 -10.051812 18.724087 7.308260 -24.180876 -5.261109 -0.164800 2.615400 -7.209700 0.097165 1.158087 -14.648336 0.994774 0.878485 -5.272063 -3.156020 0.280457 5.511015 -0.776685 -0.488061 -22.653136 9.109488 -0.478700 13.625926 0.918800 1.002700 14.657200 -4.454430 -7.609219 -3.247596 -76.312695 5.899239 44.931453 14.753813 -19.506416 -3.842305 -1.796142 -2.116120 -40.952591 24.344926 -4.618278 -2.082300 -7.125000 0.000000 0.000000 0.345500 25.404200 -0.163900 5.860821 10.295733 0.653277 34.431887 12.691948 -39.732300 -126.446090 50.063890 -97.723078 -0.991261 3.621662 38.000031 -75.802055 30.595295 -56.481400 7.125000 0.000000 0.000000 -23.424400 26.984200 -33.382600 
-14.903117 17.172694 24.453169 -6.610956 -46.838963 5.729211 13.056587 3.380603 -4.868721 -7.204204 -1.675269 0.975736 -4.667908 -0.878328 3.526069 -0.105988 6.755762 24.104486 0.000000 0.000000 0.000000 -13.210943 -0.483218 -3.481649 22.053758 25.356203 -9.873326 4.476466 -10.050843 18.718082 7.312596 -24.194035 -5.274043 -0.163500 2.605200 -7.181300 0.118362 1.165451 -14.651037 0.979020 0.899073 -5.268768 -3.225429 0.286500 5.531674 -0.730458 -0.508471 -22.676823 9.134093 -0.529712 13.623721 0.923700 0.990400 14.661900 -4.463785 -7.614343 -3.244603 -76.226699 5.869125 44.866646 14.761332 -19.513858 -3.844836 -1.794749 -2.124768 -41.084824 24.364807 -4.595576 -2.072500 -7.125000 0.000000 0.000000 0.365500 25.429800 -0.173100 5.856929 10.300023 0.660146 34.579491 12.831401 -39.378528 -126.679710 49.925044 -97.887891 -1.236007 3.542491 34.233614 -74.070549 29.176852 -52.340900 7.125000 0.000000 0.000000 -22.878600 23.288500 -31.948600 
-14.903721 17.172964 24.452377 -6.620536 -46.836090 5.746032 13.058601 3.381099 -4.869035 -7.204040 -1.675314 0.975956 -4.667901 -0.878435 3.526131 -0.106056 6.755654 24.104529 0.000000 0.000000 0.000000 -13.210971 -0.479713 -3.480582 22.058912 25.379153 -9.874862 4.478031 -10.050503 18.710144 7.319731 -24.216375 -5.284970 -0.163100 2.602300 -7.173400 0.139918 1.172011 -14.655749 0.964487 0.916553 -5.267121 -3.288399 0.291416 5.545482 -0.692286 -0.530064 -22.693191 9.158860 -0.579824 13.626024 0.930600 0.977600 14.667800 -4.472898 -7.619612 -3.242531 -76.136718 5.851805 44.842023 14.769240 -19.523827 -3.848049 -1.793421 -2.136068 -41.243438 24.394365 -4.564634 -2.059200 -7.125000 0.000000 0.000000 0.394500 25.464900 -0.186500 5.854320 10.305865 0.668812 34.715217 12.994088 -38.920983 -127.028149 49.728712 -98.117481 -1.526111 3.408223 29.621223 -72.231971 27.418631 -47.645700 7.125000 0.000000 0.000000 -22.391300 18.987800 -30.348300 
-14.904540 17.173269 24.451466 -6.631982 -46.835289 5.765233 13.061050 3.381762 -4.868872 -7.203654 -1.675431 0.976470 -4.667884 -0.878701 3.526285 -0.106160 6.755381 24.104635 0.000000 0.000000 0.000000 -13.209919 -0.476230 -3.479345 22.064723 25.396502 -9.880653 4.479655 -10.050451 18.701395 7.327665 -24.241670 -5.284860 -0.164500 2.613200 -7.203600 0.156922 1.172948 -14.659893 0.956314 0.921293 -5.268201 -3.324421 0.291660 5.547425 -0.678714 -0.546506 -22.696135 9.179167 -0.612517 13.634668 0.941200 0.968400 14.674200 -4.480556 -7.625018 -3.243102 -76.076062 5.848397 44.815704 14.771134 -19.526671 -3.848326 -1.792971 -2.147871 -41.398715 24.427826 -4.531001 -2.044800 -7.125000 0.000000 0.000000 0.427300 25.502700 -0.201700 5.856035 10.313959 0.680962 34.820904 13.170898 -38.339966 -127.537472 49.451396 -98.436580 -1.837340 3.204595 24.280484 -70.348656 25.307089 -42.450700 7.125000 0.000000 0.000000 -21.998600 14.102400 -28.572500 
-14.905271 17.173544 24.450492 -6.643492 -46.837071 5.785731 13.063650 3.382549 -4.868119 -7.203056 -1.675617 0.977265 -4.667857 -0.879118 3.526527 -0.106301 6.754953 24.104801 0.000000 0.000000 0.000000 -13.207973 -0.472667 -3.477730 22.069147 25.410683 -9.890034 4.481262 -10.050390 18.690962 7.336153 -24.269013 -5.275727 -0.166900 2.632200 -7.256300 0.168113 1.171270 -14.662216 0.953667 0.917871 -5.272211 -3.334619 0.289293 5.535687 -0.688955 -0.561506 -22.686069 9.192518 -0.633357 13.649479 0.952500 0.960500 14.681500 -4.488387 -7.630731 -3.246774 -76.046942 5.854487 44.775931 14.761385 -19.514675 -3.842662 -1.795269 -2.158300 -41.528250 24.469917 -4.501474 -2.034200 -7.125000 0.000000 0.000000 0.467300 25.533800 -0.220200 5.862917 10.323803 0.697334 34.895182 13.343396 -37.651661 -128.240347 49.074813 -98.861841 -2.143836 2.922567 18.280499 -68.601126 22.915771 -37.071000 7.125000 0.000000 0.000000 -21.775100 8.892500 -26.731900 
